<mxfile host="app.diagrams.net" modified="2023-04-05T16:29:18.697Z" agent="Mozilla/5.0 (Windows NT 10.0; WOW64) AppleWebKit/537.36 (KHTML, like Gecko) Chrome/92.0.4515.131 Safari/537.36 SLBrowser/8.0.0.12022 SLBChan/25" version="21.1.4" etag="3iVaCj7t4URDpFxNxXRM" type="github">
  <diagram name="第 1 页" id="UEdug9_IwMbXUu6I8PIS">
    <mxGraphModel>
      <root>
        <mxCell id="0" />
        <mxCell id="1" parent="0" />
      </root>
    </mxGraphModel>
  </diagram>
</mxfile>
